<svg stroke="currentColor" fill="none" stroke-width="0" xmlns="http://www.w3.org/2000/svg" viewBox="0 0 20 20" class="first:[&amp;>path]:fill-transparent transition-colors" width="36" height="36"><path d="M11.4397 2.86999L12.9062 5.82724C13.1062 6.23889 13.6394 6.63375 14.0894 6.70936L16.7474 7.15463C18.4473 7.44028 18.8473 8.68367 17.6223 9.91025L15.5559 11.9938C15.2059 12.3466 15.0143 13.0271 15.1226 13.5144L15.7143 16.0936C16.1808 18.1351 15.1059 18.9248 13.3145 17.8578L10.8231 16.3708C10.3732 16.102 9.63159 16.102 9.17325 16.3708L6.6819 17.8578C4.89875 18.9248 3.81555 18.1267 4.28216 16.0936L4.87376 13.5144C4.98208 13.0271 4.79044 12.3466 4.44047 11.9938L2.37404 9.91025C1.1575 8.68367 1.54913 7.44028 3.24894 7.15463L5.90698 6.70936C6.3486 6.63375 6.88187 6.23889 7.08185 5.82724L8.54834 2.86999C9.34825 1.26534 10.6481 1.26534 11.4397 2.86999Z" stroke="currentColor" stroke-width="1.25" stroke-linecap="round" stroke-linejoin="round"></path></svg>